<?xml version="1.0" encoding="UTF-8"?>
<svg xmlns="http://www.w3.org/2000/svg" xmlns:xlink="http://www.w3.org/1999/xlink" width="16px" height="17px" viewBox="0 0 16 16" version="1.1">
<g id="surface1">
<path style=" stroke:none;fill-rule:nonzero;fill:rgb(98.431373%,94.509804%,23.921569%);fill-opacity:1;" d="M 10.960938 1.347656 C 11.03125 1.382812 11.101562 1.417969 11.171875 1.453125 C 11.855469 1.804688 12.464844 2.246094 13.023438 2.761719 C 13.039062 2.777344 13.058594 2.792969 13.074219 2.808594 C 13.304688 3.019531 13.511719 3.242188 13.710938 3.480469 C 13.734375 3.515625 13.761719 3.546875 13.789062 3.578125 C 14.121094 3.980469 14.40625 4.410156 14.660156 4.863281 C 14.667969 4.882812 14.679688 4.902344 14.691406 4.925781 C 14.878906 5.257812 15.023438 5.601562 15.148438 5.960938 C 15.15625 5.984375 15.164062 6.003906 15.171875 6.027344 C 15.359375 6.554688 15.460938 7.128906 15.476562 7.6875 C 15.476562 7.707031 15.476562 7.730469 15.476562 7.75 C 15.5 8.59375 15.367188 9.421875 15.117188 10.226562 C 15.109375 10.253906 15.101562 10.277344 15.09375 10.304688 C 14.835938 11.121094 14.472656 11.980469 13.90625 12.644531 C 13.867188 12.691406 13.867188 12.691406 13.828125 12.742188 C 13.71875 12.855469 13.601562 12.945312 13.476562 13.039062 C 13.417969 13.085938 13.359375 13.132812 13.300781 13.179688 C 11.625 14.542969 9.375 15.09375 7.207031 14.949219 C 5.328125 14.800781 2.921875 14.199219 1.636719 12.769531 C 0.632812 11.59375 0.40625 9.929688 0.554688 8.460938 C 0.632812 7.761719 0.804688 7.078125 0.972656 6.394531 C 1.097656 5.863281 1.210938 5.332031 1.300781 4.796875 C 1.367188 4.402344 1.441406 4.011719 1.625 3.652344 C 1.636719 3.628906 1.648438 3.605469 1.660156 3.582031 C 1.855469 3.210938 2.121094 2.902344 2.421875 2.605469 C 2.445312 2.578125 2.46875 2.554688 2.496094 2.527344 C 4.359375 0.664062 8.160156 0.183594 10.960938 1.347656 Z M 6.804688 1.570312 C 6.757812 1.574219 6.757812 1.574219 6.707031 1.582031 C 5.433594 1.753906 3.792969 2.113281 2.957031 3.148438 C 2.910156 3.199219 2.910156 3.199219 2.835938 3.269531 C 2.734375 3.371094 2.660156 3.476562 2.585938 3.59375 C 2.570312 3.617188 2.554688 3.636719 2.542969 3.660156 C 2.253906 4.117188 2.128906 4.617188 2.042969 5.140625 C 1.949219 5.707031 1.824219 6.253906 1.648438 6.804688 C 1.539062 7.160156 1.464844 7.511719 1.40625 7.875 C 1.398438 7.914062 1.394531 7.957031 1.386719 8 C 1.171875 9.398438 1.316406 11.074219 2.21875 12.242188 C 2.863281 13.054688 3.855469 13.429688 4.84375 13.742188 C 4.871094 13.75 4.898438 13.757812 4.929688 13.769531 C 5.480469 13.945312 6.039062 14.054688 6.609375 14.148438 C 6.636719 14.152344 6.660156 14.15625 6.6875 14.164062 C 8.558594 14.476562 10.664062 14.054688 12.234375 13.035156 C 12.734375 12.699219 13.265625 12.300781 13.578125 11.796875 C 13.601562 11.761719 13.625 11.722656 13.652344 11.6875 C 14.597656 10.242188 14.945312 8.375 14.570312 6.707031 C 14.453125 6.230469 14.292969 5.777344 14.070312 5.332031 C 14.054688 5.300781 14.054688 5.300781 14.039062 5.269531 C 13.796875 4.792969 13.480469 4.355469 13.121094 3.953125 C 13.09375 3.921875 13.0625 3.886719 13.035156 3.855469 C 12.65625 3.414062 12.222656 3.039062 11.746094 2.699219 C 11.726562 2.683594 11.710938 2.671875 11.691406 2.65625 C 11.09375 2.222656 10.40625 1.871094 9.683594 1.679688 C 9.621094 1.664062 9.558594 1.644531 9.496094 1.628906 C 8.621094 1.386719 7.699219 1.449219 6.804688 1.570312 Z M 6.804688 1.570312 "/>
<path style=" stroke:none;fill-rule:nonzero;fill:rgb(98.431373%,94.509804%,26.666668%);fill-opacity:1;" d="M 12.433594 6.304688 C 12.699219 6.363281 12.949219 6.460938 13.203125 6.558594 C 13.230469 6.566406 13.257812 6.578125 13.289062 6.589844 C 13.433594 6.644531 13.5625 6.699219 13.675781 6.808594 C 13.714844 6.917969 13.71875 6.972656 13.679688 7.085938 C 13.601562 7.164062 13.539062 7.183594 13.425781 7.191406 C 13.332031 7.183594 13.261719 7.15625 13.175781 7.121094 C 13.148438 7.109375 13.117188 7.097656 13.089844 7.085938 C 13.066406 7.078125 13.046875 7.066406 13.023438 7.058594 C 13.019531 7.082031 13.015625 7.105469 13.011719 7.132812 C 12.910156 7.910156 12.789062 8.714844 12.464844 9.441406 C 12.488281 9.445312 12.511719 9.449219 12.535156 9.453125 C 12.921875 9.542969 13.28125 9.859375 13.507812 10.164062 C 13.570312 10.265625 13.605469 10.367188 13.644531 10.476562 C 13.648438 10.496094 13.65625 10.515625 13.664062 10.535156 C 13.746094 10.9375 13.667969 11.351562 13.4375 11.695312 C 13.304688 11.859375 13.144531 11.941406 12.929688 11.96875 C 12.632812 11.964844 12.347656 11.789062 12.144531 11.59375 C 12.121094 11.570312 12.097656 11.542969 12.074219 11.519531 C 12.007812 11.453125 11.941406 11.394531 11.867188 11.332031 C 11.769531 11.25 11.675781 11.164062 11.582031 11.074219 C 11.445312 11.125 11.367188 11.222656 11.277344 11.328125 C 11.246094 11.367188 11.214844 11.402344 11.179688 11.441406 C 11.152344 11.476562 11.121094 11.511719 11.09375 11.546875 C 10.582031 12.136719 10.582031 12.136719 10.179688 12.183594 C 10.070312 12.191406 9.960938 12.199219 9.851562 12.203125 C 9.402344 12.226562 9.085938 12.34375 8.6875 12.535156 C 8.640625 12.554688 8.640625 12.554688 8.597656 12.574219 C 8.570312 12.585938 8.546875 12.597656 8.519531 12.613281 C 8.054688 12.796875 7.417969 12.640625 6.96875 12.484375 C 6.417969 12.261719 6.050781 11.945312 5.675781 11.492188 C 5.261719 11.007812 4.828125 10.875 4.199219 10.785156 C 3.792969 10.726562 3.40625 10.636719 3.136719 10.3125 C 2.863281 9.925781 2.519531 9.285156 2.519531 8.816406 C 2.484375 8.832031 2.453125 8.851562 2.417969 8.871094 C 2.394531 8.882812 2.375 8.894531 2.351562 8.90625 C 2.28125 8.945312 2.28125 8.945312 2.195312 9.011719 C 2.066406 9.082031 1.945312 9.097656 1.800781 9.066406 C 1.71875 8.949219 1.710938 8.855469 1.734375 8.722656 C 1.933594 8.382812 2.496094 8.179688 2.863281 8.070312 C 3.027344 8.03125 3.203125 8.003906 3.371094 8.03125 C 3.472656 8.09375 3.472656 8.09375 3.535156 8.1875 C 3.542969 8.277344 3.539062 8.355469 3.5 8.4375 C 3.402344 8.53125 3.3125 8.550781 3.183594 8.570312 C 3.148438 8.574219 3.117188 8.582031 3.085938 8.585938 C 3.046875 8.589844 3.046875 8.589844 3.011719 8.597656 C 3.015625 8.613281 3.023438 8.632812 3.027344 8.652344 C 3.046875 8.703125 3.066406 8.757812 3.085938 8.8125 C 3.105469 8.871094 3.128906 8.933594 3.148438 8.992188 C 3.191406 9.121094 3.234375 9.246094 3.277344 9.371094 C 3.375 9.667969 3.496094 9.945312 3.761719 10.132812 C 3.921875 10.207031 4.054688 10.242188 4.230469 10.265625 C 4.277344 10.273438 4.320312 10.277344 4.367188 10.285156 C 4.4375 10.292969 4.507812 10.304688 4.578125 10.3125 C 5.335938 10.414062 5.707031 10.714844 6.183594 11.261719 C 6.589844 11.730469 7.050781 12.050781 7.699219 12.117188 C 8.152344 12.152344 8.449219 12.082031 8.835938 11.859375 C 8.890625 11.832031 8.945312 11.804688 9.003906 11.78125 C 9.023438 11.773438 9.046875 11.765625 9.066406 11.753906 C 9.199219 11.710938 9.332031 11.695312 9.472656 11.6875 C 9.503906 11.6875 9.539062 11.683594 9.574219 11.679688 C 9.644531 11.675781 9.714844 11.671875 9.785156 11.667969 C 10.226562 11.636719 10.46875 11.484375 10.757812 11.164062 C 11.792969 9.980469 12.453125 8.429688 12.433594 6.871094 C 12.394531 6.859375 12.394531 6.859375 12.355469 6.847656 C 12.324219 6.835938 12.292969 6.824219 12.257812 6.8125 C 12.207031 6.796875 12.207031 6.796875 12.160156 6.78125 C 12.074219 6.746094 12.074219 6.746094 12.007812 6.652344 C 12.003906 6.589844 12.003906 6.589844 12.015625 6.527344 C 12.019531 6.492188 12.019531 6.492188 12.023438 6.460938 C 12.082031 6.269531 12.253906 6.285156 12.433594 6.304688 Z M 12.238281 9.914062 C 12.214844 9.933594 12.195312 9.957031 12.171875 9.976562 C 12.171875 10.007812 12.171875 10.039062 12.171875 10.070312 C 12.25 10.136719 12.25 10.136719 12.34375 10.195312 C 12.523438 10.3125 12.523438 10.3125 12.589844 10.375 C 12.628906 10.421875 12.628906 10.421875 12.695312 10.414062 C 12.703125 10.433594 12.710938 10.449219 12.722656 10.46875 C 12.757812 10.542969 12.757812 10.542969 12.8125 10.609375 C 12.878906 10.742188 12.867188 10.867188 12.859375 11.011719 C 12.738281 11.050781 12.625 11.0625 12.5 11.042969 C 12.371094 10.949219 12.28125 10.820312 12.1875 10.695312 C 12.089844 10.574219 12.035156 10.53125 11.878906 10.511719 C 11.867188 10.582031 11.867188 10.582031 11.878906 10.667969 C 11.933594 10.734375 11.933594 10.734375 12.011719 10.792969 C 12.050781 10.828125 12.050781 10.828125 12.09375 10.859375 C 12.175781 10.921875 12.175781 10.921875 12.277344 10.984375 C 12.367188 11.042969 12.417969 11.101562 12.484375 11.183594 C 12.609375 11.3125 12.777344 11.402344 12.957031 11.417969 C 13.121094 11.234375 13.160156 11.011719 13.148438 10.773438 C 13.109375 10.53125 12.988281 10.300781 12.796875 10.136719 C 12.613281 10.015625 12.464844 9.921875 12.238281 9.914062 Z M 12.238281 9.914062 "/>
<path style=" stroke:none;fill-rule:nonzero;fill:rgb(98.431373%,94.509804%,26.666668%);fill-opacity:1;" d="M 10.339844 3.304688 C 10.46875 3.324219 10.46875 3.324219 10.550781 3.375 C 10.621094 3.480469 10.632812 3.546875 10.632812 3.671875 C 10.578125 3.851562 10.457031 3.976562 10.324219 4.109375 C 10.25 4.199219 10.230469 4.28125 10.207031 4.390625 C 10.359375 4.515625 10.511719 4.621094 10.6875 4.707031 C 10.84375 4.789062 10.953125 4.851562 11.058594 4.988281 C 11.085938 5.082031 11.101562 5.171875 11.09375 5.269531 C 11.070312 5.300781 11.050781 5.332031 11.027344 5.363281 C 10.730469 5.40625 10.523438 5.285156 10.289062 5.117188 C 10.242188 5.082031 10.191406 5.042969 10.144531 5.003906 C 10.070312 4.953125 10 4.921875 9.914062 4.894531 C 9.890625 4.949219 9.867188 5.003906 9.84375 5.058594 C 9.828125 5.089844 9.8125 5.125 9.796875 5.160156 C 9.765625 5.234375 9.738281 5.308594 9.710938 5.382812 C 9.578125 5.738281 9.578125 5.738281 9.390625 5.835938 C 9.246094 5.839844 9.167969 5.765625 9.0625 5.679688 C 9.109375 5.308594 9.261719 4.96875 9.4375 4.640625 C 9.464844 4.554688 9.453125 4.507812 9.421875 4.421875 C 9.367188 4.359375 9.367188 4.359375 9.289062 4.300781 C 9.265625 4.28125 9.238281 4.257812 9.210938 4.238281 C 9.183594 4.214844 9.15625 4.195312 9.128906 4.171875 C 8.757812 3.875 8.757812 3.875 8.71875 3.667969 C 8.742188 3.542969 8.796875 3.496094 8.898438 3.417969 C 8.980469 3.386719 8.980469 3.386719 9.0625 3.386719 C 9.300781 3.496094 9.46875 3.71875 9.625 3.914062 C 9.6875 3.988281 9.71875 4.003906 9.816406 4.015625 C 9.828125 3.980469 9.828125 3.980469 9.84375 3.949219 C 10.109375 3.320312 10.109375 3.320312 10.339844 3.304688 Z M 10.339844 3.304688 "/>
<path style=" stroke:none;fill-rule:nonzero;fill:rgb(98.431373%,94.509804%,26.666668%);fill-opacity:1;" d="M 5.460938 4.019531 C 5.523438 4.121094 5.519531 4.214844 5.496094 4.328125 C 5.394531 4.550781 5.203125 4.710938 5.023438 4.875 C 4.925781 4.96875 4.867188 5.058594 4.808594 5.175781 C 4.917969 5.382812 5.105469 5.535156 5.292969 5.679688 C 5.40625 5.773438 5.46875 5.859375 5.53125 5.992188 C 5.53125 6.117188 5.515625 6.160156 5.425781 6.253906 C 5.3125 6.316406 5.265625 6.328125 5.136719 6.304688 C 4.957031 6.199219 4.851562 6.09375 4.742188 5.921875 C 4.617188 5.738281 4.617188 5.738281 4.417969 5.648438 C 4.402344 5.683594 4.386719 5.71875 4.371094 5.757812 C 4.351562 5.808594 4.332031 5.855469 4.3125 5.902344 C 4.300781 5.929688 4.292969 5.953125 4.28125 5.976562 C 4.222656 6.113281 4.167969 6.230469 4.058594 6.335938 C 3.929688 6.367188 3.855469 6.378906 3.730469 6.335938 C 3.65625 6.246094 3.648438 6.148438 3.652344 6.035156 C 3.695312 5.765625 3.855469 5.53125 4.019531 5.316406 C 4.066406 5.242188 4.066406 5.242188 4.039062 5.164062 C 3.980469 5.0625 3.914062 4.96875 3.84375 4.875 C 3.605469 4.558594 3.605469 4.558594 3.632812 4.328125 C 3.691406 4.242188 3.730469 4.1875 3.828125 4.140625 C 3.921875 4.128906 3.921875 4.128906 4.023438 4.140625 C 4.171875 4.257812 4.234375 4.375 4.296875 4.542969 C 4.304688 4.566406 4.3125 4.585938 4.324219 4.609375 C 4.34375 4.660156 4.363281 4.714844 4.382812 4.769531 C 4.511719 4.726562 4.550781 4.652344 4.621094 4.550781 C 4.648438 4.511719 4.675781 4.476562 4.699219 4.4375 C 4.714844 4.417969 4.726562 4.402344 4.738281 4.382812 C 5.007812 4.007812 5.007812 4.007812 5.128906 3.960938 C 5.25 3.945312 5.355469 3.960938 5.460938 4.019531 Z M 5.460938 4.019531 "/>
<path style=" stroke:none;fill-rule:nonzero;fill:rgb(96.470588%,94.117647%,50.196081%);fill-opacity:1;" d="M 2.714844 2.320312 C 2.738281 2.332031 2.757812 2.34375 2.78125 2.351562 C 2.332031 2.863281 2.332031 2.863281 2.160156 2.917969 C 2.207031 2.820312 2.257812 2.753906 2.339844 2.675781 C 2.371094 2.644531 2.371094 2.644531 2.40625 2.613281 C 2.429688 2.59375 2.449219 2.570312 2.472656 2.550781 C 2.496094 2.527344 2.519531 2.503906 2.542969 2.484375 C 2.601562 2.429688 2.660156 2.375 2.714844 2.320312 Z M 2.714844 2.320312 "/>
</g>
</svg>
